<svg width="186" height="131" viewBox="0 0 186 131" fill="none" xmlns="http://www.w3.org/2000/svg">
	<path
		d="M109 120.659V51.5101L112.5 48.8352L118 48L123.5 48.8352L127 51.5101V120.659L123 123.582L118 124L112 123.165L109 120.659Z"
		fill="#1164E1" fill-opacity="0.7" stroke="#15E111" />
	<path
		d="M50.6946 119.05L65.0722 50.3836L69.0752 48.2391L74.6653 48.2141L79.9081 49.8477L82.7987 53.0158L68.4211 121.683L63.8741 124L58.8633 123.684L53.1281 121.977L50.6946 119.05Z"
		fill="#1164E1" fill-opacity="0.7" stroke="#15E111" />
	<path
		d="M86 120.088V39.1105L89.5 35.978L95 35L100.5 35.978L104 39.1105V120.088L100 123.511L95 124L89 123.022L86 120.088Z"
		fill="#1164E1" fill-opacity="0.7" stroke="#15E111" />
	<g filter="url(#filter0_i_17_27)">
		<path
			d="M38.8125 27H33.2017V8.81818H39.0611C40.8248 8.81818 42.334 9.18217 43.5888 9.91016C44.8435 10.6322 45.8053 11.6709 46.4741 13.0263C47.1429 14.3757 47.4773 15.9915 47.4773 17.8736C47.4773 19.7675 47.1399 21.3981 46.4652 22.7653C45.7905 24.1265 44.808 25.1741 43.5178 25.908C42.2275 26.636 40.6591 27 38.8125 27ZM35.4034 25.0469H38.6705C40.1738 25.0469 41.4196 24.7569 42.408 24.1768C43.3964 23.5968 44.1333 22.7712 44.6186 21.6999C45.1039 20.6287 45.3466 19.3532 45.3466 17.8736C45.3466 16.4058 45.1069 15.1422 44.6275 14.0827C44.1481 13.0174 43.4319 12.2006 42.479 11.6325C41.5262 11.0584 40.3395 10.7713 38.919 10.7713H35.4034V25.0469ZM51.0617 27H48.7535L55.4296 8.81818H57.7023L64.3785 27H62.0702L56.637 11.6946H56.4949L51.0617 27ZM51.914 19.8977H61.218V21.8509H51.914V19.8977ZM67.2105 27V8.81818H73.567C74.8336 8.81818 75.8782 9.03717 76.7009 9.47514C77.5236 9.9072 78.1362 10.4902 78.5386 11.2241C78.9411 11.9521 79.1423 12.7599 79.1423 13.6477C79.1423 14.429 79.0032 15.0741 78.7251 15.5831C78.4528 16.0921 78.0918 16.4946 77.642 16.7905C77.1981 17.0864 76.7157 17.3054 76.1949 17.4474V17.625C76.7512 17.6605 77.3105 17.8558 77.8728 18.2109C78.435 18.5661 78.9056 19.075 79.2844 19.7379C79.6631 20.4008 79.8525 21.2116 79.8525 22.1705C79.8525 23.0819 79.6454 23.9016 79.2311 24.6296C78.8168 25.3576 78.1628 25.9347 77.2691 26.3608C76.3754 26.7869 75.2124 27 73.7801 27H67.2105ZM69.4122 25.0469H73.7801C75.2183 25.0469 76.2393 24.7687 76.843 24.2124C77.4526 23.6501 77.7574 22.9695 77.7574 22.1705C77.7574 21.5549 77.6005 20.9867 77.2868 20.4659C76.9732 19.9392 76.5263 19.5189 75.9463 19.2053C75.3663 18.8857 74.6797 18.7259 73.8866 18.7259H69.4122V25.0469ZM69.4122 16.8082H73.496C74.1589 16.8082 74.7567 16.678 75.2893 16.4176C75.8279 16.1572 76.2541 15.7902 76.5677 15.3168C76.8873 14.8433 77.0471 14.2869 77.0471 13.6477C77.0471 12.8487 76.769 12.171 76.2126 11.6147C75.6563 11.0524 74.7744 10.7713 73.567 10.7713H69.4122V16.8082ZM98.8112 17.9091C98.8112 19.8267 98.4649 21.4839 97.7725 22.8807C97.08 24.2775 96.1301 25.3546 94.9227 26.1122C93.7153 26.8698 92.3363 27.2486 90.7856 27.2486C89.2349 27.2486 87.8559 26.8698 86.6485 26.1122C85.4411 25.3546 84.4912 24.2775 83.7987 22.8807C83.1063 21.4839 82.76 19.8267 82.76 17.9091C82.76 15.9915 83.1063 14.3343 83.7987 12.9375C84.4912 11.5407 85.4411 10.4635 86.6485 9.70597C87.8559 8.94839 89.2349 8.5696 90.7856 8.5696C92.3363 8.5696 93.7153 8.94839 94.9227 9.70597C96.1301 10.4635 97.08 11.5407 97.7725 12.9375C98.4649 14.3343 98.8112 15.9915 98.8112 17.9091ZM96.6805 17.9091C96.6805 16.3348 96.4171 15.006 95.8904 13.9229C95.3695 12.8398 94.6623 12.0201 93.7686 11.4638C92.8808 10.9074 91.8865 10.6293 90.7856 10.6293C89.6847 10.6293 88.6875 10.9074 87.7938 11.4638C86.906 12.0201 86.1987 12.8398 85.672 13.9229C85.1511 15.006 84.8907 16.3348 84.8907 17.9091C84.8907 19.4834 85.1511 20.8121 85.672 21.8952C86.1987 22.9783 86.906 23.7981 87.7938 24.3544C88.6875 24.9107 89.6847 25.1889 90.7856 25.1889C91.8865 25.1889 92.8808 24.9107 93.7686 24.3544C94.6623 23.7981 95.3695 22.9783 95.8904 21.8952C96.4171 20.8121 96.6805 19.4834 96.6805 17.9091ZM117.854 17.9091C117.854 19.8267 117.508 21.4839 116.815 22.8807C116.123 24.2775 115.173 25.3546 113.966 26.1122C112.758 26.8698 111.379 27.2486 109.829 27.2486C108.278 27.2486 106.899 26.8698 105.691 26.1122C104.484 25.3546 103.534 24.2775 102.842 22.8807C102.149 21.4839 101.803 19.8267 101.803 17.9091C101.803 15.9915 102.149 14.3343 102.842 12.9375C103.534 11.5407 104.484 10.4635 105.691 9.70597C106.899 8.94839 108.278 8.5696 109.829 8.5696C111.379 8.5696 112.758 8.94839 113.966 9.70597C115.173 10.4635 116.123 11.5407 116.815 12.9375C117.508 14.3343 117.854 15.9915 117.854 17.9091ZM115.723 17.9091C115.723 16.3348 115.46 15.006 114.933 13.9229C114.412 12.8398 113.705 12.0201 112.812 11.4638C111.924 10.9074 110.929 10.6293 109.829 10.6293C108.728 10.6293 107.73 10.9074 106.837 11.4638C105.949 12.0201 105.242 12.8398 104.715 13.9229C104.194 15.006 103.934 16.3348 103.934 17.9091C103.934 19.4834 104.194 20.8121 104.715 21.8952C105.242 22.9783 105.949 23.7981 106.837 24.3544C107.73 24.9107 108.728 25.1889 109.829 25.1889C110.929 25.1889 111.924 24.9107 112.812 24.3544C113.705 23.7981 114.412 22.9783 114.933 21.8952C115.46 20.8121 115.723 19.4834 115.723 17.9091ZM121.556 27V8.81818H123.758V17.8381H123.971L132.139 8.81818H135.015L127.38 17.0213L135.015 27H132.352L126.031 18.5483L123.758 21.1051V27H121.556ZM147.808 13.3636C147.701 12.464 147.269 11.7656 146.512 11.2685C145.754 10.7713 144.825 10.5227 143.724 10.5227C142.919 10.5227 142.215 10.6529 141.611 10.9134C141.013 11.1738 140.546 11.5318 140.209 11.9876C139.877 12.4433 139.711 12.9612 139.711 13.5412C139.711 14.0265 139.827 14.4438 140.058 14.793C140.294 15.1362 140.596 15.4233 140.963 15.6541C141.33 15.879 141.715 16.0655 142.117 16.2134C142.52 16.3555 142.89 16.4709 143.227 16.5597L145.074 17.0568C145.547 17.1811 146.074 17.3527 146.654 17.5717C147.24 17.7907 147.799 18.0896 148.332 18.4684C148.87 18.8413 149.314 19.3207 149.663 19.9066C150.013 20.4925 150.187 21.2116 150.187 22.0639C150.187 23.0464 149.93 23.9342 149.415 24.7273C148.906 25.5204 148.16 26.1507 147.178 26.6183C146.201 27.0858 145.014 27.3196 143.618 27.3196C142.316 27.3196 141.188 27.1095 140.235 26.6893C139.288 26.2691 138.542 25.6831 137.998 24.9315C137.459 24.1798 137.155 23.3068 137.084 22.3125H139.356C139.415 22.9991 139.646 23.5672 140.049 24.017C140.457 24.4609 140.972 24.7924 141.593 25.0114C142.221 25.2244 142.896 25.331 143.618 25.331C144.458 25.331 145.213 25.1948 145.881 24.9226C146.55 24.6444 147.08 24.2597 147.471 23.7685C147.861 23.2713 148.057 22.6913 148.057 22.0284C148.057 21.4247 147.888 20.9335 147.551 20.5547C147.213 20.1759 146.769 19.8681 146.219 19.6314C145.668 19.3946 145.074 19.1875 144.434 19.0099L142.197 18.3707C140.777 17.9624 139.652 17.3794 138.824 16.6218C137.995 15.8642 137.581 14.8729 137.581 13.6477C137.581 12.6297 137.856 11.742 138.406 10.9844C138.963 10.2209 139.708 9.62902 140.644 9.20881C141.585 8.78267 142.635 8.5696 143.795 8.5696C144.967 8.5696 146.009 8.77971 146.92 9.19993C147.832 9.61423 148.554 10.1824 149.086 10.9045C149.625 11.6265 149.909 12.4463 149.939 13.3636H147.808Z"
			fill="black" />
	</g>
	<path
		d="M33.2017 27H32.2017V28H33.2017V27ZM33.2017 8.81818V7.81818H32.2017V8.81818H33.2017ZM43.5888 9.91016L43.0869 10.7751L43.09 10.7769L43.5888 9.91016ZM46.4741 13.0263L45.5773 13.4688L45.5781 13.4703L46.4741 13.0263ZM46.4652 22.7653L47.3612 23.2094L47.3619 23.2078L46.4652 22.7653ZM43.5178 25.908L44.0092 26.779L44.0122 26.7772L43.5178 25.908ZM35.4034 25.0469H34.4034V26.0469H35.4034V25.0469ZM42.408 24.1768L41.9019 23.3144L42.408 24.1768ZM44.6275 14.0827L43.7156 14.4931L43.7164 14.495L44.6275 14.0827ZM42.479 11.6325L41.963 12.489L41.9669 12.4914L42.479 11.6325ZM35.4034 10.7713V9.77131H34.4034V10.7713H35.4034ZM38.8125 26H33.2017V28H38.8125V26ZM34.2017 27V8.81818H32.2017V27H34.2017ZM33.2017 9.81818H39.0611V7.81818H33.2017V9.81818ZM39.0611 9.81818C40.6865 9.81818 42.0144 10.1529 43.0869 10.7751L44.0906 9.0452C42.6537 8.21149 40.9631 7.81818 39.0611 7.81818V9.81818ZM43.09 10.7769C44.1651 11.3956 44.9921 12.2829 45.5773 13.4688L47.3708 12.5838C46.6184 11.059 45.5219 9.86884 44.0876 9.04343L43.09 10.7769ZM45.5781 13.4703C46.1635 14.6516 46.4773 16.108 46.4773 17.8736H48.4773C48.4773 15.875 48.1222 14.0998 47.3701 12.5822L45.5781 13.4703ZM46.4773 17.8736C46.4773 19.6504 46.1608 21.1224 45.5685 22.3227L47.3619 23.2078C48.119 21.6737 48.4773 19.8846 48.4773 17.8736H46.4773ZM45.5692 22.3212C44.9808 23.5084 44.1361 24.4059 43.0233 25.0388L44.0122 26.7772C45.4799 25.9424 46.6002 24.7447 47.3612 23.2094L45.5692 22.3212ZM43.0264 25.0371C41.9188 25.662 40.5288 26 38.8125 26V28C40.7894 28 42.5363 27.61 44.0092 26.779L43.0264 25.0371ZM35.4034 26.0469H38.6705V24.0469H35.4034V26.0469ZM38.6705 26.0469C40.2977 26.0469 41.7316 25.7333 42.9141 25.0393L41.9019 23.3144C41.1077 23.7805 40.0498 24.0469 38.6705 24.0469V26.0469ZM42.9141 25.0393C44.0856 24.3519 44.9613 23.3667 45.5295 22.1126L43.7077 21.2873C43.3052 22.1757 42.7072 22.8418 41.9019 23.3144L42.9141 25.0393ZM45.5295 22.1126C46.0866 20.8828 46.3466 19.46 46.3466 17.8736H44.3466C44.3466 19.2465 44.1212 20.3746 43.7077 21.2873L45.5295 22.1126ZM46.3466 17.8736C46.3466 16.2997 46.0898 14.8887 45.5385 13.6705L43.7164 14.495C44.124 15.3956 44.3466 16.5119 44.3466 17.8736H46.3466ZM45.5394 13.6724C44.9806 12.4306 44.1298 11.4525 42.9912 10.7736L41.9669 12.4914C42.7341 12.9488 43.3156 13.6042 43.7156 14.4931L45.5394 13.6724ZM42.9951 10.7759C41.8488 10.0853 40.4718 9.77131 38.919 9.77131V11.7713C40.2072 11.7713 41.2035 12.0314 41.963 12.489L42.9951 10.7759ZM38.919 9.77131H35.4034V11.7713H38.919V9.77131ZM34.4034 10.7713V25.0469H36.4034V10.7713H34.4034ZM51.0617 27V28H51.7679L52.0041 27.3345L51.0617 27ZM48.7535 27L47.8147 26.6553L47.321 28H48.7535V27ZM55.4296 8.81818V7.81818H54.7315L54.4909 8.4735L55.4296 8.81818ZM57.7023 8.81818L58.641 8.4735L58.4004 7.81818H57.7023V8.81818ZM64.3785 27V28H65.8109L65.3172 26.6553L64.3785 27ZM62.0702 27L61.1278 27.3345L61.3641 28H62.0702V27ZM56.637 11.6946L57.5794 11.3601L57.3431 10.6946H56.637V11.6946ZM56.4949 11.6946V10.6946H55.7888L55.5526 11.3601L56.4949 11.6946ZM51.914 19.8977V18.8977H50.914V19.8977H51.914ZM61.218 19.8977H62.218V18.8977H61.218V19.8977ZM61.218 21.8509V22.8509H62.218V21.8509H61.218ZM51.914 21.8509H50.914V22.8509H51.914V21.8509ZM51.0617 26H48.7535V28H51.0617V26ZM49.6922 27.3447L56.3683 9.16287L54.4909 8.4735L47.8147 26.6553L49.6922 27.3447ZM55.4296 9.81818H57.7023V7.81818H55.4296V9.81818ZM56.7636 9.16287L63.4397 27.3447L65.3172 26.6553L58.641 8.4735L56.7636 9.16287ZM64.3785 26H62.0702V28H64.3785V26ZM63.0126 26.6655L57.5794 11.3601L55.6946 12.0291L61.1278 27.3345L63.0126 26.6655ZM56.637 10.6946H56.4949V12.6946H56.637V10.6946ZM55.5526 11.3601L50.1193 26.6655L52.0041 27.3345L57.4373 12.0291L55.5526 11.3601ZM51.914 20.8977H61.218V18.8977H51.914V20.8977ZM60.218 19.8977V21.8509H62.218V19.8977H60.218ZM61.218 20.8509H51.914V22.8509H61.218V20.8509ZM52.914 21.8509V19.8977H50.914V21.8509H52.914ZM67.2105 27H66.2105V28H67.2105V27ZM67.2105 8.81818V7.81818H66.2105V8.81818H67.2105ZM76.7009 9.47514L76.231 10.3579L76.2359 10.3605L76.7009 9.47514ZM78.5386 11.2241L77.6618 11.7049L77.6635 11.7079L78.5386 11.2241ZM78.7251 15.5831L77.8475 15.1035L77.8433 15.1114L78.7251 15.5831ZM77.642 16.7905L77.0923 15.9551L77.0873 15.9584L77.642 16.7905ZM76.1949 17.4474L75.9318 16.4827L75.1949 16.6836V17.4474H76.1949ZM76.1949 17.625H75.1949V18.5632L76.1312 18.623L76.1949 17.625ZM77.8728 18.2109L77.3388 19.0564L77.3388 19.0564L77.8728 18.2109ZM79.2311 24.6296L80.1002 25.1242L80.1002 25.1242L79.2311 24.6296ZM77.2691 26.3608L76.8387 25.4582L76.8387 25.4582L77.2691 26.3608ZM69.4122 25.0469H68.4122V26.0469H69.4122V25.0469ZM76.843 24.2124L77.5206 24.9477L77.5209 24.9474L76.843 24.2124ZM77.2868 20.4659L76.4276 20.9776L76.4302 20.9818L77.2868 20.4659ZM75.9463 19.2053L75.4637 20.0811L75.4706 20.0849L75.9463 19.2053ZM69.4122 18.7259V17.7259H68.4122V18.7259H69.4122ZM69.4122 16.8082H68.4122V17.8082H69.4122V16.8082ZM75.2893 16.4176L74.854 15.5173L74.8501 15.5192L75.2893 16.4176ZM76.5677 15.3168L75.7389 14.7573L75.7341 14.7645L76.5677 15.3168ZM76.2126 11.6147L75.5018 12.3181L75.5055 12.3218L76.2126 11.6147ZM69.4122 10.7713V9.77131H68.4122V10.7713H69.4122ZM68.2105 27V8.81818H66.2105V27H68.2105ZM67.2105 9.81818H73.567V7.81818H67.2105V9.81818ZM73.567 9.81818C74.7258 9.81818 75.5955 10.0195 76.231 10.3578L77.1708 8.59244C76.1609 8.0548 74.9414 7.81818 73.567 7.81818V9.81818ZM76.2359 10.3605C76.9045 10.7116 77.3641 11.1621 77.6618 11.7049L79.4154 10.7432C78.9082 9.81824 78.1427 9.10282 77.1659 8.58981L76.2359 10.3605ZM77.6635 11.7079C77.9785 12.2778 78.1423 12.9174 78.1423 13.6477H80.1423C80.1423 12.6024 79.9036 11.6263 79.4138 10.7402L77.6635 11.7079ZM78.1423 13.6477C78.1423 14.3171 78.0223 14.7838 77.8475 15.1035L79.6026 16.0627C79.9842 15.3644 80.1423 14.5408 80.1423 13.6477H78.1423ZM77.8433 15.1114C77.6438 15.4843 77.3928 15.7574 77.0923 15.9551L78.1916 17.6259C78.7907 17.2317 79.2618 16.6999 79.6068 16.0547L77.8433 15.1114ZM77.0873 15.9584C76.7339 16.194 76.3501 16.3686 75.9318 16.4827L76.458 18.4122C77.0813 18.2422 77.6623 17.9788 78.1967 17.6225L77.0873 15.9584ZM75.1949 17.4474V17.625H77.1949V17.4474H75.1949ZM76.1312 18.623C76.491 18.6459 76.8908 18.7735 77.3388 19.0564L78.4068 17.3654C77.7302 16.9382 77.0114 16.6751 76.2586 16.627L76.1312 18.623ZM77.3388 19.0564C77.7435 19.312 78.1064 19.692 78.4161 20.2341L80.1526 19.2418C79.7048 18.4581 79.1266 17.8201 78.4068 17.3654L77.3388 19.0564ZM78.4161 20.2341C78.6891 20.7118 78.8525 21.3418 78.8525 22.1705H80.8525C80.8525 21.0815 80.6372 20.0898 80.1526 19.2418L78.4161 20.2341ZM78.8525 22.1705C78.8525 22.9242 78.683 23.5709 78.362 24.135L80.1002 25.1242C80.6077 24.2324 80.8525 23.2396 80.8525 22.1705H78.8525ZM78.362 24.135C78.0661 24.6549 77.5823 25.1036 76.8387 25.4582L77.6995 27.2634C78.7433 26.7657 79.5675 26.0603 80.1002 25.1242L78.362 24.135ZM76.8387 25.4582C76.1257 25.7981 75.125 26 73.7801 26V28C75.2998 28 76.6251 27.7757 77.6995 27.2634L76.8387 25.4582ZM73.7801 26H67.2105V28H73.7801V26ZM69.4122 26.0469H73.7801V24.0469H69.4122V26.0469ZM73.7801 26.0469C75.2969 26.0469 76.6358 25.7631 77.5206 24.9477L76.1653 23.477C75.8427 23.7743 75.1397 24.0469 73.7801 24.0469V26.0469ZM77.5209 24.9474C78.327 24.204 78.7574 23.2605 78.7574 22.1705H76.7574C76.7574 22.6785 76.5781 23.0962 76.165 23.4773L77.5209 24.9474ZM78.7574 22.1705C78.7574 21.3755 78.5522 20.6286 78.1435 19.95L76.4302 20.9818C76.6489 21.3449 76.7574 21.7344 76.7574 22.1705H78.7574ZM78.146 19.9543C77.7331 19.2608 77.1483 18.7184 76.422 18.3257L75.4706 20.0849C75.9044 20.3195 76.2132 20.6175 76.4277 20.9776L78.146 19.9543ZM76.4289 18.3294C75.6744 17.9137 74.8152 17.7259 73.8866 17.7259V19.7259C74.5442 19.7259 75.0581 19.8576 75.4637 20.0811L76.4289 18.3294ZM73.8866 17.7259H69.4122V19.7259H73.8866V17.7259ZM68.4122 18.7259V25.0469H70.4122V18.7259H68.4122ZM69.4122 17.8082H73.496V15.8082H69.4122V17.8082ZM73.496 17.8082C74.293 17.8082 75.0437 17.6508 75.7285 17.316L74.8501 15.5192C74.4696 15.7053 74.0248 15.8082 73.496 15.8082V17.8082ZM75.7246 17.3179C76.4159 16.9837 76.9832 16.5003 77.4014 15.8691L75.7341 14.7645C75.5249 15.0802 75.24 15.3307 74.854 15.5173L75.7246 17.3179ZM77.3966 15.8762C77.8408 15.2182 78.0471 14.4617 78.0471 13.6477H76.0471C76.0471 14.1122 75.9339 14.4683 75.7389 14.7573L77.3966 15.8762ZM78.0471 13.6477C78.0471 12.5881 77.6669 11.6547 76.9197 10.9076L75.5055 12.3218C75.8711 12.6874 76.0471 13.1093 76.0471 13.6477H78.0471ZM76.9235 10.9113C76.1004 10.0795 74.9033 9.77131 73.567 9.77131V11.7713C74.6455 11.7713 75.2122 12.0253 75.5018 12.3181L76.9235 10.9113ZM73.567 9.77131H69.4122V11.7713H73.567V9.77131ZM68.4122 10.7713V16.8082H70.4122V10.7713H68.4122ZM97.7725 22.8807L96.8765 22.4365L96.8765 22.4365L97.7725 22.8807ZM94.9227 26.1122L95.4542 26.9593L95.4542 26.9593L94.9227 26.1122ZM86.6485 26.1122L86.117 26.9593L86.117 26.9593L86.6485 26.1122ZM83.7987 22.8807L84.6947 22.4365L84.6947 22.4365L83.7987 22.8807ZM94.9227 9.70597L95.4542 8.8589L95.4542 8.8589L94.9227 9.70597ZM97.7725 12.9375L96.8765 13.3817L96.8765 13.3817L97.7725 12.9375ZM95.8904 13.9229L94.9891 14.3563L94.9911 14.3603L95.8904 13.9229ZM93.7686 11.4638L93.2375 12.3111L93.2401 12.3127L93.7686 11.4638ZM87.7938 11.4638L87.2653 10.6148L87.2628 10.6164L87.7938 11.4638ZM85.672 13.9229L84.7727 13.4856L84.7707 13.4896L85.672 13.9229ZM85.672 21.8952L84.7707 22.3286L84.7727 22.3326L85.672 21.8952ZM87.7938 24.3544L87.2628 25.2018L87.2653 25.2033L87.7938 24.3544ZM93.7686 24.3544L93.2401 23.5055L93.2375 23.507L93.7686 24.3544ZM95.8904 21.8952L94.9911 21.4579L94.9891 21.4619L95.8904 21.8952ZM97.8112 17.9091C97.8112 19.7074 97.4866 21.2059 96.8765 22.4365L98.6684 23.3249C99.4433 21.7619 99.8112 19.946 99.8112 17.9091H97.8112ZM96.8765 22.4365C96.2581 23.684 95.4277 24.6148 94.3912 25.2652L95.4542 26.9593C96.8324 26.0945 97.9019 24.871 98.6684 23.3249L96.8765 22.4365ZM94.3912 25.2652C93.357 25.9141 92.1654 26.2486 90.7856 26.2486V28.2486C92.5071 28.2486 94.0736 27.8255 95.4542 26.9593L94.3912 25.2652ZM90.7856 26.2486C89.4058 26.2486 88.2142 25.9141 87.18 25.2652L86.117 26.9593C87.4976 27.8255 89.0641 28.2486 90.7856 28.2486V26.2486ZM87.18 25.2652C86.1435 24.6148 85.3131 23.684 84.6947 22.4365L82.9028 23.3249C83.6693 24.871 84.7388 26.0945 86.117 26.9593L87.18 25.2652ZM84.6947 22.4365C84.0846 21.2059 83.76 19.7074 83.76 17.9091H81.76C81.76 19.946 82.1279 21.7619 82.9028 23.3249L84.6947 22.4365ZM83.76 17.9091C83.76 16.1108 84.0846 14.6123 84.6947 13.3817L82.9028 12.4933C82.1279 14.0563 81.76 15.8722 81.76 17.9091H83.76ZM84.6947 13.3817C85.3131 12.1342 86.1435 11.2034 87.18 10.553L86.117 8.8589C84.7388 9.72367 83.6693 10.9472 82.9028 12.4933L84.6947 13.3817ZM87.18 10.553C88.2142 9.90413 89.4058 9.5696 90.7856 9.5696V7.5696C89.0641 7.5696 87.4976 7.99265 86.117 8.8589L87.18 10.553ZM90.7856 9.5696C92.1654 9.5696 93.357 9.90413 94.3912 10.553L95.4542 8.8589C94.0736 7.99265 92.5071 7.5696 90.7856 7.5696V9.5696ZM94.3912 10.553C95.4277 11.2034 96.2581 12.1342 96.8765 13.3817L98.6684 12.4933C97.9019 10.9472 96.8324 9.72367 95.4542 8.8589L94.3912 10.553ZM96.8765 13.3817C97.4866 14.6123 97.8112 16.1108 97.8112 17.9091H99.8112C99.8112 15.8722 99.4433 14.0563 98.6684 12.4933L96.8765 13.3817ZM97.6805 17.9091C97.6805 16.2279 97.3998 14.7401 96.7896 13.4856L94.9911 14.3603C95.4344 15.2719 95.6805 16.4416 95.6805 17.9091H97.6805ZM96.7916 13.4896C96.2004 12.2602 95.3738 11.2851 94.297 10.6148L93.2401 12.3127C93.9507 12.7551 94.5386 13.4195 94.9891 14.3563L96.7916 13.4896ZM94.2996 10.6164C93.2444 9.95516 92.0643 9.62926 90.7856 9.62926V11.6293C91.7086 11.6293 92.5172 11.8597 93.2375 12.3111L94.2996 10.6164ZM90.7856 9.62926C89.5069 9.62926 88.325 9.95513 87.2653 10.6148L88.3223 12.3127C89.0499 11.8597 89.8626 11.6293 90.7856 11.6293V9.62926ZM87.2628 10.6164C86.1936 11.2864 85.3688 12.2598 84.7727 13.4856L86.5713 14.3603C87.0286 13.4199 87.6184 12.7538 88.3248 12.3111L87.2628 10.6164ZM84.7707 13.4896C84.168 14.743 83.8907 16.2293 83.8907 17.9091H85.8907C85.8907 16.4402 86.1343 15.269 86.5732 14.3563L84.7707 13.4896ZM83.8907 17.9091C83.8907 19.5889 84.168 21.0751 84.7707 22.3286L86.5732 21.4619C86.1343 20.5491 85.8907 19.378 85.8907 17.9091H83.8907ZM84.7727 22.3326C85.3688 23.5584 86.1936 24.5318 87.2628 25.2018L88.3248 23.507C87.6184 23.0643 87.0286 22.3983 86.5713 21.4579L84.7727 22.3326ZM87.2653 25.2033C88.325 25.863 89.5069 26.1889 90.7856 26.1889V24.1889C89.8626 24.1889 89.0499 23.9584 88.3222 23.5055L87.2653 25.2033ZM90.7856 26.1889C92.0643 26.1889 93.2444 25.863 94.2996 25.2018L93.2375 23.507C92.5172 23.9585 91.7086 24.1889 90.7856 24.1889V26.1889ZM94.297 25.2033C95.3738 24.533 96.2004 23.558 96.7916 22.3286L94.9891 21.4619C94.5386 22.3987 93.9507 23.0631 93.2401 23.5055L94.297 25.2033ZM96.7896 22.3326C97.3998 21.078 97.6805 19.5902 97.6805 17.9091H95.6805C95.6805 19.3766 95.4344 20.5463 94.9911 21.4579L96.7896 22.3326ZM116.815 22.8807L115.919 22.4365L115.919 22.4365L116.815 22.8807ZM113.966 26.1122L114.497 26.9593L114.497 26.9593L113.966 26.1122ZM105.691 26.1122L105.16 26.9593L105.16 26.9593L105.691 26.1122ZM102.842 22.8807L103.738 22.4365L103.738 22.4365L102.842 22.8807ZM113.966 9.70597L114.497 8.8589L114.497 8.8589L113.966 9.70597ZM116.815 12.9375L115.919 13.3817L115.919 13.3817L116.815 12.9375ZM114.933 13.9229L114.032 14.3563L114.034 14.3603L114.933 13.9229ZM112.812 11.4638L112.281 12.3111L112.283 12.3127L112.812 11.4638ZM106.837 11.4638L106.308 10.6148L106.306 10.6164L106.837 11.4638ZM104.715 13.9229L103.816 13.4856L103.814 13.4896L104.715 13.9229ZM104.715 21.8952L103.814 22.3286L103.816 22.3326L104.715 21.8952ZM106.837 24.3544L106.306 25.2018L106.308 25.2033L106.837 24.3544ZM112.812 24.3544L112.283 23.5055L112.281 23.507L112.812 24.3544ZM114.933 21.8952L114.034 21.4579L114.032 21.4619L114.933 21.8952ZM116.854 17.9091C116.854 19.7074 116.53 21.2059 115.919 22.4365L117.711 23.3249C118.486 21.7619 118.854 19.946 118.854 17.9091H116.854ZM115.919 22.4365C115.301 23.684 114.471 24.6148 113.434 25.2652L114.497 26.9593C115.875 26.0945 116.945 24.871 117.711 23.3249L115.919 22.4365ZM113.434 25.2652C112.4 25.9141 111.208 26.2486 109.829 26.2486V28.2486C111.55 28.2486 113.117 27.8255 114.497 26.9593L113.434 25.2652ZM109.829 26.2486C108.449 26.2486 107.257 25.9141 106.223 25.2652L105.16 26.9593C106.541 27.8255 108.107 28.2486 109.829 28.2486V26.2486ZM106.223 25.2652C105.186 24.6148 104.356 23.684 103.738 22.4365L101.946 23.3249C102.712 24.871 103.782 26.0945 105.16 26.9593L106.223 25.2652ZM103.738 22.4365C103.128 21.2059 102.803 19.7074 102.803 17.9091H100.803C100.803 19.946 101.171 21.7619 101.946 23.3249L103.738 22.4365ZM102.803 17.9091C102.803 16.1108 103.128 14.6123 103.738 13.3817L101.946 12.4933C101.171 14.0563 100.803 15.8722 100.803 17.9091H102.803ZM103.738 13.3817C104.356 12.1342 105.186 11.2034 106.223 10.553L105.16 8.8589C103.782 9.72367 102.712 10.9472 101.946 12.4933L103.738 13.3817ZM106.223 10.553C107.257 9.90413 108.449 9.5696 109.829 9.5696V7.5696C108.107 7.5696 106.541 7.99265 105.16 8.8589L106.223 10.553ZM109.829 9.5696C111.208 9.5696 112.4 9.90413 113.434 10.553L114.497 8.8589C113.117 7.99265 111.55 7.5696 109.829 7.5696V9.5696ZM113.434 10.553C114.471 11.2034 115.301 12.1342 115.919 13.3817L117.711 12.4933C116.945 10.9472 115.875 9.72367 114.497 8.8589L113.434 10.553ZM115.919 13.3817C116.53 14.6123 116.854 16.1108 116.854 17.9091H118.854C118.854 15.8722 118.486 14.0563 117.711 12.4933L115.919 13.3817ZM116.723 17.9091C116.723 16.2279 116.443 14.7401 115.833 13.4856L114.034 14.3603C114.477 15.2719 114.723 16.4416 114.723 17.9091H116.723ZM115.835 13.4896C115.243 12.2602 114.417 11.2851 113.34 10.6148L112.283 12.3127C112.994 12.7551 113.582 13.4195 114.032 14.3563L115.835 13.4896ZM113.343 10.6164C112.287 9.95516 111.107 9.62926 109.829 9.62926V11.6293C110.752 11.6293 111.56 11.8597 112.281 12.3111L113.343 10.6164ZM109.829 9.62926C108.55 9.62926 107.368 9.95513 106.308 10.6148L107.365 12.3127C108.093 11.8597 108.906 11.6293 109.829 11.6293V9.62926ZM106.306 10.6164C105.237 11.2864 104.412 12.2598 103.816 13.4856L105.614 14.3603C106.072 13.4199 106.661 12.7538 107.368 12.3111L106.306 10.6164ZM103.814 13.4896C103.211 14.743 102.934 16.2293 102.934 17.9091H104.934C104.934 16.4402 105.177 15.269 105.616 14.3563L103.814 13.4896ZM102.934 17.9091C102.934 19.5889 103.211 21.0751 103.814 22.3286L105.616 21.4619C105.177 20.5491 104.934 19.378 104.934 17.9091H102.934ZM103.816 22.3326C104.412 23.5584 105.237 24.5318 106.306 25.2018L107.368 23.507C106.661 23.0643 106.072 22.3983 105.614 21.4579L103.816 22.3326ZM106.308 25.2033C107.368 25.863 108.55 26.1889 109.829 26.1889V24.1889C108.906 24.1889 108.093 23.9584 107.365 23.5055L106.308 25.2033ZM109.829 26.1889C111.107 26.1889 112.287 25.863 113.343 25.2018L112.281 23.507C111.56 23.9585 110.752 24.1889 109.829 24.1889V26.1889ZM113.34 25.2033C114.417 24.533 115.243 23.558 115.835 22.3286L114.032 21.4619C113.582 22.3987 112.994 23.0631 112.283 23.5055L113.34 25.2033ZM115.833 22.3326C116.443 21.078 116.723 19.5902 116.723 17.9091H114.723C114.723 19.3766 114.477 20.5463 114.034 21.4579L115.833 22.3326ZM121.556 27H120.556V28H121.556V27ZM121.556 8.81818V7.81818H120.556V8.81818H121.556ZM123.758 8.81818H124.758V7.81818H123.758V8.81818ZM123.758 17.8381H122.758V18.8381H123.758V17.8381ZM123.971 17.8381V18.8381H124.415L124.712 18.5093L123.971 17.8381ZM132.139 8.81818V7.81818H131.695L131.397 8.14696L132.139 8.81818ZM135.015 8.81818L135.747 9.49948L137.312 7.81818H135.015V8.81818ZM127.38 17.0213L126.648 16.34L126.073 16.9582L126.586 17.629L127.38 17.0213ZM135.015 27V28H137.039L135.809 26.3923L135.015 27ZM132.352 27L131.551 27.5989L131.851 28H132.352V27ZM126.031 18.5483L126.831 17.9494L126.097 16.9679L125.283 17.8839L126.031 18.5483ZM123.758 21.1051L123.01 20.4407L122.758 20.7249V21.1051H123.758ZM123.758 27V28H124.758V27H123.758ZM122.556 27V8.81818H120.556V27H122.556ZM121.556 9.81818H123.758V7.81818H121.556V9.81818ZM122.758 8.81818V17.8381H124.758V8.81818H122.758ZM123.758 18.8381H123.971V16.8381H123.758V18.8381ZM124.712 18.5093L132.88 9.4894L131.397 8.14696L123.23 17.1668L124.712 18.5093ZM132.139 9.81818H135.015V7.81818H132.139V9.81818ZM134.283 8.13688L126.648 16.34L128.112 17.7026L135.747 9.49948L134.283 8.13688ZM126.586 17.629L134.221 27.6077L135.809 26.3923L128.174 16.4136L126.586 17.629ZM135.015 26H132.352V28H135.015V26ZM133.152 26.4011L126.831 17.9494L125.23 19.1472L131.551 27.5989L133.152 26.4011ZM125.283 17.8839L123.01 20.4407L124.505 21.7695L126.778 19.2127L125.283 17.8839ZM122.758 21.1051V27H124.758V21.1051H122.758ZM123.758 26H121.556V28H123.758V26ZM147.808 13.3636L146.815 13.4812L146.919 14.3636H147.808V13.3636ZM146.512 11.2685L145.963 12.1045L145.963 12.1045L146.512 11.2685ZM141.611 10.9134L141.215 9.99513L141.212 9.99657L141.611 10.9134ZM140.209 11.9876L139.405 11.3926L139.4 11.3994L140.209 11.9876ZM140.058 14.793L139.223 15.3444L139.229 15.3526L139.234 15.3607L140.058 14.793ZM140.963 15.6541L140.431 16.5006L140.441 16.5067L140.963 15.6541ZM142.117 16.2134L141.772 17.1521L141.784 17.1564L142.117 16.2134ZM143.227 16.5597L143.487 15.594L143.481 15.5926L143.227 16.5597ZM145.074 17.0568L144.814 18.0225L144.82 18.024L145.074 17.0568ZM146.654 17.5717L146.301 18.5073L146.304 18.5085L146.654 17.5717ZM148.332 18.4684L147.752 19.2834L147.763 19.2906L148.332 18.4684ZM149.663 19.9066L150.522 19.3947L150.522 19.3947L149.663 19.9066ZM149.415 24.7273L148.576 24.1827L148.573 24.1871L149.415 24.7273ZM147.178 26.6183L146.748 25.7153L146.746 25.7163L147.178 26.6183ZM140.235 26.6893L139.83 27.6033L139.832 27.6043L140.235 26.6893ZM137.998 24.9315L137.185 25.5139L137.188 25.5181L137.998 24.9315ZM137.084 22.3125V21.3125H136.01L136.086 22.3837L137.084 22.3125ZM139.356 22.3125L140.353 22.2266L140.274 21.3125H139.356V22.3125ZM140.049 24.017L139.303 24.6839L139.313 24.6941L140.049 24.017ZM141.593 25.0114L141.261 25.9546L141.272 25.9582L141.593 25.0114ZM145.881 24.9226L146.259 25.8488L146.266 25.8459L145.881 24.9226ZM147.471 23.7685L148.253 24.3909L148.257 24.3863L147.471 23.7685ZM147.551 20.5547L148.297 19.8896L148.297 19.8896L147.551 20.5547ZM146.219 19.6314L145.824 20.55L145.824 20.55L146.219 19.6314ZM144.434 19.0099L144.16 19.9715L144.167 19.9735L144.434 19.0099ZM142.197 18.3707L141.921 19.3318L141.922 19.3323L142.197 18.3707ZM138.824 16.6218L138.149 17.3598L138.149 17.3598L138.824 16.6218ZM138.406 10.9844L137.598 10.3955L137.597 10.3966L138.406 10.9844ZM140.644 9.20881L141.053 10.1209L141.056 10.1198L140.644 9.20881ZM146.92 9.19993L146.501 10.1081L146.506 10.1103L146.92 9.19993ZM149.086 10.9045L148.282 11.4981L148.285 11.5024L149.086 10.9045ZM149.939 13.3636V14.3636H150.971L150.938 13.3314L149.939 13.3636ZM148.801 13.246C148.66 12.053 148.065 11.0916 147.06 10.4324L145.963 12.1045C146.474 12.4396 146.743 12.8751 146.815 13.4812L148.801 13.246ZM147.06 10.4324C146.108 9.80724 144.978 9.52273 143.724 9.52273V11.5227C144.672 11.5227 145.401 11.7354 145.963 12.1045L147.06 10.4324ZM143.724 9.52273C142.813 9.52273 141.969 9.67011 141.215 9.99514L142.007 11.8316C142.461 11.6358 143.026 11.5227 143.724 11.5227V9.52273ZM141.212 9.99657C140.478 10.3163 139.861 10.776 139.405 11.3926L141.012 12.5825C141.231 12.2876 141.549 12.0312 142.011 11.8301L141.212 9.99657ZM139.4 11.3994C138.94 12.0313 138.711 12.7565 138.711 13.5412H140.711C140.711 13.1659 140.814 12.8553 141.017 12.5757L139.4 11.3994ZM138.711 13.5412C138.711 14.1906 138.868 14.8068 139.223 15.3444L140.892 14.2415C140.786 14.0807 140.711 13.8625 140.711 13.5412H138.711ZM139.234 15.3607C139.551 15.8201 139.954 16.2005 140.431 16.5006L141.496 14.8077C141.239 14.6461 141.038 14.4524 140.881 14.2252L139.234 15.3607ZM140.441 16.5067C140.864 16.7659 141.308 16.9812 141.772 17.152L142.462 15.2748C142.122 15.1497 141.797 14.9921 141.486 14.8015L140.441 16.5067ZM141.784 17.1564C142.207 17.3056 142.604 17.4297 142.973 17.5267L143.481 15.5926C143.176 15.5121 142.832 15.4053 142.45 15.2704L141.784 17.1564ZM142.967 17.5253L144.814 18.0224L145.334 16.0912L143.487 15.594L142.967 17.5253ZM144.82 18.024C145.252 18.1376 145.745 18.2975 146.301 18.5073L147.007 16.6362C146.403 16.408 145.842 16.2247 145.327 16.0896L144.82 18.024ZM146.304 18.5085C146.805 18.6957 147.287 18.9527 147.752 19.2833L148.911 17.6534C148.311 17.2265 147.675 16.8858 147.004 16.635L146.304 18.5085ZM147.763 19.2906C148.179 19.5786 148.525 19.9504 148.804 20.4185L150.522 19.3947C150.103 18.691 149.562 18.1039 148.901 17.6462L147.763 19.2906ZM148.804 20.4185C149.041 20.8154 149.187 21.3473 149.187 22.0639H151.187C151.187 21.076 150.984 20.1697 150.522 19.3947L148.804 20.4185ZM149.187 22.0639C149.187 22.8611 148.982 23.5583 148.576 24.1827L150.254 25.2718C150.878 24.3101 151.187 23.2317 151.187 22.0639H149.187ZM148.573 24.1871C148.18 24.8002 147.589 25.3153 146.748 25.7153L147.607 27.5212C148.732 26.9861 149.632 26.2405 150.256 25.2674L148.573 24.1871ZM146.746 25.7163C145.937 26.1034 144.907 26.3196 143.618 26.3196V28.3196C145.122 28.3196 146.465 28.0682 147.609 27.5202L146.746 25.7163ZM143.618 26.3196C142.421 26.3196 141.437 26.1263 140.639 25.7743L139.832 27.6043C140.939 28.0927 142.21 28.3196 143.618 28.3196V26.3196ZM140.641 25.7752C139.836 25.4181 139.237 24.9375 138.808 24.3448L137.188 25.5181C137.848 26.4287 138.741 27.1201 139.83 27.6033L140.641 25.7752ZM138.811 24.349C138.388 23.7592 138.14 23.0663 138.081 22.2413L136.086 22.3837C136.169 23.5473 136.531 24.6004 137.185 25.5139L138.811 24.349ZM137.084 23.3125H139.356V21.3125H137.084V23.3125ZM138.36 22.3984C138.435 23.2687 138.737 24.0503 139.303 24.6838L140.794 23.3503C140.556 23.0841 140.396 22.7294 140.353 22.2266L138.36 22.3984ZM139.313 24.6941C139.842 25.2692 140.5 25.6863 141.261 25.9545L141.926 24.0682C141.444 23.8984 141.072 23.6526 140.785 23.34L139.313 24.6941ZM141.272 25.9582C142.012 26.2095 142.796 26.331 143.618 26.331V24.331C142.995 24.331 142.43 24.2394 141.915 24.0645L141.272 25.9582ZM143.618 26.331C144.566 26.331 145.452 26.1771 146.259 25.8488L145.504 23.9964C144.973 24.2126 144.35 24.331 143.618 24.331V26.331ZM146.266 25.8459C147.066 25.5129 147.742 25.0337 148.253 24.3909L146.688 23.1461C146.418 23.4857 146.034 23.776 145.497 23.9993L146.266 25.8459ZM148.257 24.3863C148.793 23.704 149.057 22.9037 149.057 22.0284H147.057C147.057 22.4789 146.929 22.8386 146.684 23.1506L148.257 24.3863ZM149.057 22.0284C149.057 21.2287 148.828 20.4852 148.297 19.8896L146.804 21.2198C146.948 21.3817 147.057 21.6208 147.057 22.0284H149.057ZM148.297 19.8896C147.847 19.3836 147.275 18.9969 146.614 18.7128L145.824 20.55C146.264 20.7394 146.58 20.9682 146.804 21.2198L148.297 19.8896ZM146.614 18.7128C146.018 18.4564 145.38 18.2348 144.702 18.0464L144.167 19.9735C144.767 20.1402 145.319 20.3329 145.824 20.55L146.614 18.7128ZM144.709 18.0484L142.472 17.4092L141.922 19.3323L144.16 19.9715L144.709 18.0484ZM142.473 17.4097C141.156 17.031 140.183 16.5097 139.498 15.8838L138.149 17.3598C139.121 18.2491 140.397 18.8938 141.921 19.3318L142.473 17.4097ZM139.498 15.8838C138.897 15.3341 138.581 14.6207 138.581 13.6477H136.581C136.581 15.125 137.093 16.3943 138.149 17.3598L139.498 15.8838ZM138.581 13.6477C138.581 12.8215 138.8 12.1438 139.215 11.5722L137.597 10.3966C136.912 11.3401 136.581 12.438 136.581 13.6477H138.581ZM139.215 11.5733C139.66 10.9622 140.263 10.4761 141.053 10.1209L140.234 8.29667C139.154 8.78191 138.266 9.47958 137.598 10.3955L139.215 11.5733ZM141.056 10.1198C141.852 9.75914 142.76 9.5696 143.795 9.5696V7.5696C142.51 7.5696 141.317 7.8062 140.231 8.29785L141.056 10.1198ZM143.795 9.5696C144.847 9.5696 145.742 9.75769 146.502 10.1081L147.339 8.2918C146.276 7.80173 145.088 7.5696 143.795 7.5696V9.5696ZM146.506 10.1103C147.281 10.4624 147.861 10.9286 148.282 11.4981L149.891 10.3108C149.246 9.43626 148.382 8.76606 147.334 8.28956L146.506 10.1103ZM148.285 11.5024C148.699 12.0573 148.916 12.6787 148.939 13.3959L150.938 13.3314C150.902 12.2138 150.551 11.1958 149.888 10.3066L148.285 11.5024ZM149.939 12.3636H147.808V14.3636H149.939V12.3636Z"
		fill="black" />
	<path d="M22 15C-4.93673 57.8993 -4.39523 83.1197 22 130" stroke="#010101" stroke-width="3" />
	<path d="M164 130C190.937 87.1007 190.395 61.8803 164 15" stroke="black" stroke-width="3" />
	<defs>
		<filter id="filter0_i_17_27" x="33.2017" y="8.56961" width="116.986" height="22.75"
			filterUnits="userSpaceOnUse" color-interpolation-filters="sRGB">
			<feFlood flood-opacity="0" result="BackgroundImageFix" />
			<feBlend mode="normal" in="SourceGraphic" in2="BackgroundImageFix" result="shape" />
			<feColorMatrix in="SourceAlpha" type="matrix"
				values="0 0 0 0 0 0 0 0 0 0 0 0 0 0 0 0 0 0 127 0" result="hardAlpha" />
			<feOffset dy="4" />
			<feGaussianBlur stdDeviation="2" />
			<feComposite in2="hardAlpha" operator="arithmetic" k2="-1" k3="1" />
			<feColorMatrix type="matrix" values="0 0 0 0 0 0 0 0 0 0 0 0 0 0 0 0 0 0 0.25 0" />
			<feBlend mode="normal" in2="shape" result="effect1_innerShadow_17_27" />
		</filter>
	</defs>
</svg>
	